<mxfile host="65bd71144e">
    <diagram id="1qT3a-EDioAs-E3fLM2I" name="Página-1">
        <mxGraphModel dx="1393" dy="1165" grid="1" gridSize="10" guides="1" tooltips="1" connect="1" arrows="1" fold="1" page="1" pageScale="1" pageWidth="827" pageHeight="1169" math="0" shadow="0">
            <root>
                <mxCell id="0"/>
                <mxCell id="1" parent="0"/>
                <mxCell id="8" value="Fornecedor" style="shape=ext;double=1;rounded=1;whiteSpace=wrap;html=1;labelBackgroundColor=none;fontColor=#FFFFFF;" parent="1" vertex="1">
                    <mxGeometry x="184" y="225" width="120" height="80" as="geometry"/>
                </mxCell>
                <mxCell id="9" value="Cliente" style="shape=ext;double=1;rounded=1;whiteSpace=wrap;html=1;labelBackgroundColor=none;fontColor=#FFFFFF;" parent="1" vertex="1">
                    <mxGeometry x="424" y="225" width="120" height="80" as="geometry"/>
                </mxCell>
                <mxCell id="10" value="Funcionario" style="shape=ext;double=1;rounded=1;whiteSpace=wrap;html=1;labelBackgroundColor=none;fontColor=#FFFFFF;" parent="1" vertex="1">
                    <mxGeometry x="664" y="225" width="120" height="80" as="geometry"/>
                </mxCell>
                <mxCell id="11" value="Produto" style="shape=ext;double=1;rounded=1;whiteSpace=wrap;html=1;labelBackgroundColor=none;fontColor=#FFFFFF;" parent="1" vertex="1">
                    <mxGeometry x="184" y="465" width="120" height="80" as="geometry"/>
                </mxCell>
                <mxCell id="12" value="Pedido" style="shape=ext;double=1;rounded=1;whiteSpace=wrap;html=1;labelBackgroundColor=none;fontColor=#FFFFFF;" parent="1" vertex="1">
                    <mxGeometry x="544" y="465" width="120" height="80" as="geometry"/>
                </mxCell>
                <mxCell id="13" value="Item_Pedido" style="shape=ext;double=1;rounded=1;whiteSpace=wrap;html=1;labelBackgroundColor=none;fontColor=#FFFFFF;" parent="1" vertex="1">
                    <mxGeometry x="362.34" y="735" width="120" height="80" as="geometry"/>
                </mxCell>
                <mxCell id="14" value="fornece" style="html=1;whiteSpace=wrap;aspect=fixed;shape=isoRectangle;labelBackgroundColor=none;fontColor=#FFFFFF;" parent="1" vertex="1">
                    <mxGeometry x="202.34" y="375" width="83.33" height="50" as="geometry"/>
                </mxCell>
                <mxCell id="15" value="faz" style="html=1;whiteSpace=wrap;aspect=fixed;shape=isoRectangle;labelBackgroundColor=none;fontColor=#FFFFFF;" parent="1" vertex="1">
                    <mxGeometry x="442.34000000000003" y="375" width="83.33" height="50" as="geometry"/>
                </mxCell>
                <mxCell id="17" value="contém" style="html=1;whiteSpace=wrap;aspect=fixed;shape=isoRectangle;labelBackgroundColor=none;fontColor=#FFFFFF;" parent="1" vertex="1">
                    <mxGeometry x="202.34" y="595" width="83.33" height="50" as="geometry"/>
                </mxCell>
                <mxCell id="18" value="inclui" style="html=1;whiteSpace=wrap;aspect=fixed;shape=isoRectangle;labelBackgroundColor=none;fontColor=#FFFFFF;" parent="1" vertex="1">
                    <mxGeometry x="562.33" y="595" width="83.33" height="50" as="geometry"/>
                </mxCell>
                <mxCell id="23" value="atende" style="html=1;whiteSpace=wrap;aspect=fixed;shape=isoRectangle;labelBackgroundColor=none;fontColor=#FFFFFF;" parent="1" vertex="1">
                    <mxGeometry x="682.34" y="375" width="83.33" height="50" as="geometry"/>
                </mxCell>
                <mxCell id="38" value="" style="endArrow=none;html=1;rounded=0;fontColor=#FFFFFF;exitX=0.512;exitY=0.04;exitDx=0;exitDy=0;exitPerimeter=0;entryX=0.5;entryY=1;entryDx=0;entryDy=0;" parent="1" source="14" target="8" edge="1">
                    <mxGeometry relative="1" as="geometry">
                        <mxPoint x="264" y="365" as="sourcePoint"/>
                        <mxPoint x="424" y="365" as="targetPoint"/>
                    </mxGeometry>
                </mxCell>
                <mxCell id="39" value="1" style="resizable=0;html=1;align=right;verticalAlign=bottom;labelBackgroundColor=none;fontColor=#FFFFFF;" parent="38" connectable="0" vertex="1">
                    <mxGeometry x="1" relative="1" as="geometry">
                        <mxPoint y="20" as="offset"/>
                    </mxGeometry>
                </mxCell>
                <mxCell id="40" value="" style="endArrow=none;html=1;rounded=0;fontColor=#FFFFFF;exitX=0.488;exitY=1.02;exitDx=0;exitDy=0;exitPerimeter=0;entryX=0.5;entryY=0;entryDx=0;entryDy=0;" parent="1" source="14" target="11" edge="1">
                    <mxGeometry relative="1" as="geometry">
                        <mxPoint x="284" y="435" as="sourcePoint"/>
                        <mxPoint x="444" y="435" as="targetPoint"/>
                    </mxGeometry>
                </mxCell>
                <mxCell id="41" value="N" style="resizable=0;html=1;align=right;verticalAlign=bottom;labelBackgroundColor=none;fontColor=#FFFFFF;" parent="40" connectable="0" vertex="1">
                    <mxGeometry x="1" relative="1" as="geometry"/>
                </mxCell>
                <mxCell id="42" value="" style="endArrow=none;html=1;rounded=0;fontColor=#FFFFFF;exitX=0.5;exitY=0.08;exitDx=0;exitDy=0;exitPerimeter=0;entryX=0.5;entryY=1;entryDx=0;entryDy=0;" parent="1" source="15" target="9" edge="1">
                    <mxGeometry relative="1" as="geometry">
                        <mxPoint x="505.0049600000002" y="413" as="sourcePoint"/>
                        <mxPoint x="484" y="315" as="targetPoint"/>
                    </mxGeometry>
                </mxCell>
                <mxCell id="43" value="1" style="resizable=0;html=1;align=right;verticalAlign=bottom;labelBackgroundColor=none;fontColor=#FFFFFF;" parent="42" connectable="0" vertex="1">
                    <mxGeometry x="1" relative="1" as="geometry">
                        <mxPoint y="20" as="offset"/>
                    </mxGeometry>
                </mxCell>
                <mxCell id="44" value="" style="endArrow=none;html=1;rounded=0;fontColor=#FFFFFF;exitX=0.5;exitY=0;exitDx=0;exitDy=0;exitPerimeter=0;entryX=0.5;entryY=1;entryDx=0;entryDy=0;" parent="1" source="23" target="10" edge="1">
                    <mxGeometry relative="1" as="geometry">
                        <mxPoint x="634" y="325" as="sourcePoint"/>
                        <mxPoint x="794" y="325" as="targetPoint"/>
                    </mxGeometry>
                </mxCell>
                <mxCell id="45" value="1" style="resizable=0;html=1;align=right;verticalAlign=bottom;labelBackgroundColor=none;fontColor=#FFFFFF;" parent="44" connectable="0" vertex="1">
                    <mxGeometry x="1" relative="1" as="geometry">
                        <mxPoint y="30" as="offset"/>
                    </mxGeometry>
                </mxCell>
                <mxCell id="48" value="" style="endArrow=none;html=1;rounded=0;fontColor=#FFFFFF;exitX=0.476;exitY=1.06;exitDx=0;exitDy=0;exitPerimeter=0;entryX=0.25;entryY=0;entryDx=0;entryDy=0;" parent="1" source="15" target="12" edge="1">
                    <mxGeometry relative="1" as="geometry">
                        <mxPoint x="258.00483999999983" y="436" as="sourcePoint"/>
                        <mxPoint x="254" y="475" as="targetPoint"/>
                    </mxGeometry>
                </mxCell>
                <mxCell id="49" value="N" style="resizable=0;html=1;align=right;verticalAlign=bottom;labelBackgroundColor=none;fontColor=#FFFFFF;" parent="48" connectable="0" vertex="1">
                    <mxGeometry x="1" relative="1" as="geometry"/>
                </mxCell>
                <mxCell id="50" value="" style="endArrow=none;html=1;rounded=0;fontColor=#FFFFFF;exitX=0.464;exitY=0.98;exitDx=0;exitDy=0;exitPerimeter=0;entryX=0.75;entryY=0;entryDx=0;entryDy=0;" parent="1" source="23" target="12" edge="1">
                    <mxGeometry relative="1" as="geometry">
                        <mxPoint x="268.00483999999983" y="446" as="sourcePoint"/>
                        <mxPoint x="264" y="485" as="targetPoint"/>
                    </mxGeometry>
                </mxCell>
                <mxCell id="51" value="N" style="resizable=0;html=1;align=right;verticalAlign=bottom;labelBackgroundColor=none;fontColor=#FFFFFF;" parent="50" connectable="0" vertex="1">
                    <mxGeometry x="1" relative="1" as="geometry"/>
                </mxCell>
                <mxCell id="52" value="" style="endArrow=none;html=1;rounded=0;fontColor=#FFFFFF;exitX=0.524;exitY=0.06;exitDx=0;exitDy=0;exitPerimeter=0;entryX=0.5;entryY=1;entryDx=0;entryDy=0;" parent="1" source="17" target="11" edge="1">
                    <mxGeometry relative="1" as="geometry">
                        <mxPoint x="255.00495999999998" y="387" as="sourcePoint"/>
                        <mxPoint x="254" y="315" as="targetPoint"/>
                    </mxGeometry>
                </mxCell>
                <mxCell id="53" value="1" style="resizable=0;html=1;align=right;verticalAlign=bottom;labelBackgroundColor=none;fontColor=#FFFFFF;" parent="52" connectable="0" vertex="1">
                    <mxGeometry x="1" relative="1" as="geometry">
                        <mxPoint y="20" as="offset"/>
                    </mxGeometry>
                </mxCell>
                <mxCell id="54" value="" style="endArrow=none;html=1;rounded=0;fontColor=#FFFFFF;exitX=0.524;exitY=0.04;exitDx=0;exitDy=0;exitPerimeter=0;entryX=0.5;entryY=1;entryDx=0;entryDy=0;" parent="1" source="18" target="12" edge="1">
                    <mxGeometry relative="1" as="geometry">
                        <mxPoint x="256.00491999999986" y="608" as="sourcePoint"/>
                        <mxPoint x="254" y="555" as="targetPoint"/>
                    </mxGeometry>
                </mxCell>
                <mxCell id="55" value="1" style="resizable=0;html=1;align=right;verticalAlign=bottom;labelBackgroundColor=none;fontColor=#FFFFFF;" parent="54" connectable="0" vertex="1">
                    <mxGeometry x="1" relative="1" as="geometry">
                        <mxPoint y="20" as="offset"/>
                    </mxGeometry>
                </mxCell>
                <mxCell id="56" value="" style="endArrow=none;html=1;rounded=0;fontColor=#FFFFFF;exitX=0.536;exitY=1;exitDx=0;exitDy=0;exitPerimeter=0;entryX=0;entryY=0.5;entryDx=0;entryDy=0;" parent="1" source="17" target="13" edge="1">
                    <mxGeometry relative="1" as="geometry">
                        <mxPoint x="253.00504" y="436" as="sourcePoint"/>
                        <mxPoint x="254" y="475" as="targetPoint"/>
                    </mxGeometry>
                </mxCell>
                <mxCell id="57" value="N" style="resizable=0;html=1;align=right;verticalAlign=bottom;labelBackgroundColor=none;fontColor=#FFFFFF;" parent="56" connectable="0" vertex="1">
                    <mxGeometry x="1" relative="1" as="geometry"/>
                </mxCell>
                <mxCell id="58" value="" style="endArrow=none;html=1;rounded=0;fontColor=#FFFFFF;exitX=0.488;exitY=0.94;exitDx=0;exitDy=0;exitPerimeter=0;entryX=1;entryY=0.5;entryDx=0;entryDy=0;" parent="1" source="18" target="13" edge="1">
                    <mxGeometry relative="1" as="geometry">
                        <mxPoint x="263.00504" y="446" as="sourcePoint"/>
                        <mxPoint x="264" y="485" as="targetPoint"/>
                    </mxGeometry>
                </mxCell>
                <mxCell id="59" value="N" style="resizable=0;html=1;align=right;verticalAlign=bottom;labelBackgroundColor=none;fontColor=#FFFFFF;" parent="58" connectable="0" vertex="1">
                    <mxGeometry x="1" relative="1" as="geometry">
                        <mxPoint x="10" as="offset"/>
                    </mxGeometry>
                </mxCell>
                <mxCell id="62" value="" style="verticalLabelPosition=bottom;align=center;dashed=0;html=1;verticalAlign=top;shape=mxgraph.pid.fittings.open_disc;labelBackgroundColor=none;fontColor=#FFFFFF;" parent="1" vertex="1">
                    <mxGeometry x="214" y="195" width="8" height="30" as="geometry"/>
                </mxCell>
                <mxCell id="63" value="" style="verticalLabelPosition=bottom;align=center;dashed=0;html=1;verticalAlign=top;shape=mxgraph.pid.fittings.blind_disc2;labelBackgroundColor=none;fontColor=#FFFFFF;" parent="1" vertex="1">
                    <mxGeometry x="192.34" y="195" width="10" height="30" as="geometry"/>
                </mxCell>
                <mxCell id="64" value="fornecedor_id" style="text;html=1;align=center;verticalAlign=middle;resizable=0;points=[];autosize=1;strokeColor=none;fillColor=none;fontColor=#FFFFFF;rotation=-90;" parent="1" vertex="1">
                    <mxGeometry x="147.34" y="135" width="100" height="30" as="geometry"/>
                </mxCell>
                <mxCell id="65" value="nome_empresa" style="text;html=1;align=center;verticalAlign=middle;resizable=0;points=[];autosize=1;strokeColor=none;fillColor=none;fontColor=#FFFFFF;rotation=-90;" parent="1" vertex="1">
                    <mxGeometry x="163" y="130" width="110" height="30" as="geometry"/>
                </mxCell>
                <mxCell id="66" value="" style="verticalLabelPosition=bottom;align=center;dashed=0;html=1;verticalAlign=top;shape=mxgraph.pid.fittings.open_disc;labelBackgroundColor=none;fontColor=#FFFFFF;" parent="1" vertex="1">
                    <mxGeometry x="234" y="195" width="8" height="30" as="geometry"/>
                </mxCell>
                <mxCell id="67" value="" style="verticalLabelPosition=bottom;align=center;dashed=0;html=1;verticalAlign=top;shape=mxgraph.pid.fittings.open_disc;labelBackgroundColor=none;fontColor=#FFFFFF;" parent="1" vertex="1">
                    <mxGeometry x="254" y="195" width="8" height="30" as="geometry"/>
                </mxCell>
                <mxCell id="68" value="endereço" style="text;html=1;align=center;verticalAlign=middle;resizable=0;points=[];autosize=1;strokeColor=none;fillColor=none;fontColor=#FFFFFF;rotation=-90;" parent="1" vertex="1">
                    <mxGeometry x="203" y="145" width="70" height="30" as="geometry"/>
                </mxCell>
                <mxCell id="70" value="contato" style="text;html=1;align=center;verticalAlign=middle;resizable=0;points=[];autosize=1;strokeColor=none;fillColor=none;fontColor=#FFFFFF;rotation=-90;" parent="1" vertex="1">
                    <mxGeometry x="228" y="155" width="60" height="30" as="geometry"/>
                </mxCell>
                <mxCell id="72" value="" style="verticalLabelPosition=bottom;align=center;dashed=0;html=1;verticalAlign=top;shape=mxgraph.pid.fittings.blind_disc2;labelBackgroundColor=none;fontColor=#FFFFFF;" parent="1" vertex="1">
                    <mxGeometry x="442.34000000000003" y="195" width="10" height="30" as="geometry"/>
                </mxCell>
                <mxCell id="73" value="" style="verticalLabelPosition=bottom;align=center;dashed=0;html=1;verticalAlign=top;shape=mxgraph.pid.fittings.open_disc;labelBackgroundColor=none;fontColor=#FFFFFF;" parent="1" vertex="1">
                    <mxGeometry x="460" y="195" width="8" height="30" as="geometry"/>
                </mxCell>
                <mxCell id="74" value="" style="verticalLabelPosition=bottom;align=center;dashed=0;html=1;verticalAlign=top;shape=mxgraph.pid.fittings.blind_disc2;labelBackgroundColor=none;fontColor=#FFFFFF;" parent="1" vertex="1">
                    <mxGeometry x="682.34" y="195" width="10" height="30" as="geometry"/>
                </mxCell>
                <mxCell id="75" value="" style="verticalLabelPosition=bottom;align=center;dashed=0;html=1;verticalAlign=top;shape=mxgraph.pid.fittings.blind_disc2;labelBackgroundColor=none;fontColor=#FFFFFF;rotation=90;" parent="1" vertex="1">
                    <mxGeometry x="314" y="465" width="10" height="30" as="geometry"/>
                </mxCell>
                <mxCell id="76" value="" style="verticalLabelPosition=bottom;align=center;dashed=0;html=1;verticalAlign=top;shape=mxgraph.pid.fittings.blind_disc2;labelBackgroundColor=none;fontColor=#FFFFFF;rotation=90;" parent="1" vertex="1">
                    <mxGeometry x="672.3399999999999" y="465" width="10" height="30" as="geometry"/>
                </mxCell>
                <mxCell id="77" value="" style="verticalLabelPosition=bottom;align=center;dashed=0;html=1;verticalAlign=top;shape=mxgraph.pid.fittings.blind_disc2;labelBackgroundColor=none;fontColor=#FFFFFF;rotation=0;" parent="1" vertex="1">
                    <mxGeometry x="374" y="705" width="10" height="30" as="geometry"/>
                </mxCell>
                <mxCell id="78" value="" style="verticalLabelPosition=bottom;align=center;dashed=0;html=1;verticalAlign=top;shape=mxgraph.pid.fittings.open_disc;labelBackgroundColor=none;fontColor=#FFFFFF;" parent="1" vertex="1">
                    <mxGeometry x="476" y="195" width="8" height="30" as="geometry"/>
                </mxCell>
                <mxCell id="79" value="" style="verticalLabelPosition=bottom;align=center;dashed=0;html=1;verticalAlign=top;shape=mxgraph.pid.fittings.open_disc;labelBackgroundColor=none;fontColor=#FFFFFF;" parent="1" vertex="1">
                    <mxGeometry x="494" y="195" width="8" height="30" as="geometry"/>
                </mxCell>
                <mxCell id="80" value="cliente_id" style="text;html=1;align=center;verticalAlign=middle;resizable=0;points=[];autosize=1;strokeColor=none;fillColor=none;fontColor=#FFFFFF;labelBackgroundColor=none;rotation=-90;" parent="1" vertex="1">
                    <mxGeometry x="412.34" y="145" width="70" height="30" as="geometry"/>
                </mxCell>
                <mxCell id="81" value="nome" style="text;html=1;align=center;verticalAlign=middle;resizable=0;points=[];autosize=1;strokeColor=none;fillColor=none;fontColor=#FFFFFF;rotation=-90;" parent="1" vertex="1">
                    <mxGeometry x="439" y="155" width="50" height="30" as="geometry"/>
                </mxCell>
                <mxCell id="82" value="endereço" style="text;html=1;align=center;verticalAlign=middle;resizable=0;points=[];autosize=1;strokeColor=none;fillColor=none;fontColor=#FFFFFF;rotation=-90;" parent="1" vertex="1">
                    <mxGeometry x="445" y="145" width="70" height="30" as="geometry"/>
                </mxCell>
                <mxCell id="83" value="telefone (0,1)" style="text;html=1;align=center;verticalAlign=middle;resizable=0;points=[];autosize=1;strokeColor=none;fillColor=none;fontColor=#FFFFFF;rotation=-90;" parent="1" vertex="1">
                    <mxGeometry x="453" y="135" width="90" height="30" as="geometry"/>
                </mxCell>
                <mxCell id="84" value="funcionario_id" style="text;html=1;align=center;verticalAlign=middle;resizable=0;points=[];autosize=1;strokeColor=none;fillColor=none;fontColor=#FFFFFF;rotation=-90;" parent="1" vertex="1">
                    <mxGeometry x="637.34" y="135" width="100" height="30" as="geometry"/>
                </mxCell>
                <mxCell id="85" value="" style="verticalLabelPosition=bottom;align=center;dashed=0;html=1;verticalAlign=top;shape=mxgraph.pid.fittings.open_disc;labelBackgroundColor=none;fontColor=#FFFFFF;" parent="1" vertex="1">
                    <mxGeometry x="704" y="195" width="8" height="30" as="geometry"/>
                </mxCell>
                <mxCell id="86" value="" style="verticalLabelPosition=bottom;align=center;dashed=0;html=1;verticalAlign=top;shape=mxgraph.pid.fittings.open_disc;labelBackgroundColor=none;fontColor=#FFFFFF;" parent="1" vertex="1">
                    <mxGeometry x="720.01" y="195" width="8" height="30" as="geometry"/>
                </mxCell>
                <mxCell id="87" value="" style="verticalLabelPosition=bottom;align=center;dashed=0;html=1;verticalAlign=top;shape=mxgraph.pid.fittings.open_disc;labelBackgroundColor=none;fontColor=#FFFFFF;" parent="1" vertex="1">
                    <mxGeometry x="737.34" y="195" width="8" height="30" as="geometry"/>
                </mxCell>
                <mxCell id="89" value="nome" style="text;html=1;align=center;verticalAlign=middle;resizable=0;points=[];autosize=1;strokeColor=none;fillColor=none;fontColor=#FFFFFF;rotation=-90;" parent="1" vertex="1">
                    <mxGeometry x="682.34" y="160" width="50" height="30" as="geometry"/>
                </mxCell>
                <mxCell id="90" value="cargo" style="text;html=1;align=center;verticalAlign=middle;resizable=0;points=[];autosize=1;strokeColor=none;fillColor=none;fontColor=#FFFFFF;rotation=-90;" parent="1" vertex="1">
                    <mxGeometry x="699" y="160" width="50" height="30" as="geometry"/>
                </mxCell>
                <mxCell id="91" value="data_contratacao" style="text;html=1;align=center;verticalAlign=middle;resizable=0;points=[];autosize=1;strokeColor=none;fillColor=none;fontColor=#FFFFFF;rotation=-90;" parent="1" vertex="1">
                    <mxGeometry x="682.34" y="130" width="120" height="30" as="geometry"/>
                </mxCell>
                <mxCell id="92" value="" style="verticalLabelPosition=bottom;align=center;dashed=0;html=1;verticalAlign=top;shape=mxgraph.pid.fittings.open_disc;labelBackgroundColor=none;fontColor=#FFFFFF;rotation=90;" vertex="1" parent="1">
                    <mxGeometry x="316" y="485" width="8" height="30" as="geometry"/>
                </mxCell>
                <mxCell id="93" value="" style="verticalLabelPosition=bottom;align=center;dashed=0;html=1;verticalAlign=top;shape=mxgraph.pid.fittings.open_disc;labelBackgroundColor=none;fontColor=#FFFFFF;rotation=90;" vertex="1" parent="1">
                    <mxGeometry x="315" y="505" width="8" height="30" as="geometry"/>
                </mxCell>
                <mxCell id="94" value="" style="verticalLabelPosition=bottom;align=center;dashed=0;html=1;verticalAlign=top;shape=mxgraph.pid.fittings.open_disc;labelBackgroundColor=none;fontColor=#FFFFFF;rotation=90;" vertex="1" parent="1">
                    <mxGeometry x="314" y="525" width="8" height="30" as="geometry"/>
                </mxCell>
                <mxCell id="95" value="" style="verticalLabelPosition=bottom;align=center;dashed=0;html=1;verticalAlign=top;shape=mxgraph.pid.fittings.open_disc;labelBackgroundColor=none;fontColor=#FFFFFF;rotation=-90;" vertex="1" parent="1">
                    <mxGeometry x="163" y="465" width="8" height="30" as="geometry"/>
                </mxCell>
                <mxCell id="97" value="produto_id" style="text;html=1;align=center;verticalAlign=middle;resizable=0;points=[];autosize=1;strokeColor=none;fillColor=none;" vertex="1" parent="1">
                    <mxGeometry x="332.34" y="465" width="80" height="30" as="geometry"/>
                </mxCell>
                <mxCell id="98" value="nome" style="text;html=1;align=center;verticalAlign=middle;resizable=0;points=[];autosize=1;strokeColor=none;fillColor=none;" vertex="1" parent="1">
                    <mxGeometry x="337.34" y="485" width="50" height="30" as="geometry"/>
                </mxCell>
                <mxCell id="99" value="descricao" style="text;html=1;align=center;verticalAlign=middle;resizable=0;points=[];autosize=1;strokeColor=none;fillColor=none;" vertex="1" parent="1">
                    <mxGeometry x="337.34" y="505" width="70" height="30" as="geometry"/>
                </mxCell>
                <mxCell id="100" value="preco_unitario" style="text;html=1;align=center;verticalAlign=middle;resizable=0;points=[];autosize=1;strokeColor=none;fillColor=none;" vertex="1" parent="1">
                    <mxGeometry x="332.34" y="525" width="100" height="30" as="geometry"/>
                </mxCell>
                <mxCell id="101" value="quantidade_estoque" style="text;html=1;align=center;verticalAlign=middle;resizable=0;points=[];autosize=1;strokeColor=none;fillColor=none;" vertex="1" parent="1">
                    <mxGeometry x="24" y="465" width="130" height="30" as="geometry"/>
                </mxCell>
                <mxCell id="102" value="fornecedor_id (FK)" style="text;html=1;align=center;verticalAlign=middle;resizable=0;points=[];autosize=1;strokeColor=none;fillColor=none;" vertex="1" parent="1">
                    <mxGeometry x="34" y="505" width="120" height="30" as="geometry"/>
                </mxCell>
                <mxCell id="103" value="" style="verticalLabelPosition=bottom;align=center;dashed=0;html=1;verticalAlign=top;shape=mxgraph.pid.fittings.blind_disc2;labelBackgroundColor=none;fontColor=#FFFFFF;rotation=-90;" vertex="1" parent="1">
                    <mxGeometry x="163" y="505" width="10" height="30" as="geometry"/>
                </mxCell>
                <mxCell id="104" value="pedido_id" style="text;html=1;align=center;verticalAlign=middle;resizable=0;points=[];autosize=1;strokeColor=none;fillColor=none;" vertex="1" parent="1">
                    <mxGeometry x="685.67" y="465" width="80" height="30" as="geometry"/>
                </mxCell>
                <mxCell id="105" value="" style="verticalLabelPosition=bottom;align=center;dashed=0;html=1;verticalAlign=top;shape=mxgraph.pid.fittings.open_disc;labelBackgroundColor=none;fontColor=#FFFFFF;rotation=90;" vertex="1" parent="1">
                    <mxGeometry x="672.3399999999999" y="485" width="8" height="30" as="geometry"/>
                </mxCell>
                <mxCell id="106" value="" style="verticalLabelPosition=bottom;align=center;dashed=0;html=1;verticalAlign=top;shape=mxgraph.pid.fittings.open_disc;labelBackgroundColor=none;fontColor=#FFFFFF;rotation=90;" vertex="1" parent="1">
                    <mxGeometry x="672.3399999999999" y="505" width="8" height="30" as="geometry"/>
                </mxCell>
                <mxCell id="108" value="" style="verticalLabelPosition=bottom;align=center;dashed=0;html=1;verticalAlign=top;shape=mxgraph.pid.fittings.blind_disc2;labelBackgroundColor=none;fontColor=#FFFFFF;rotation=90;" vertex="1" parent="1">
                    <mxGeometry x="672.3399999999999" y="525" width="10" height="30" as="geometry"/>
                </mxCell>
                <mxCell id="109" value="" style="verticalLabelPosition=bottom;align=center;dashed=0;html=1;verticalAlign=top;shape=mxgraph.pid.fittings.blind_disc2;labelBackgroundColor=none;fontColor=#FFFFFF;rotation=-90;" vertex="1" parent="1">
                    <mxGeometry x="525.6699999999998" y="475" width="10" height="30" as="geometry"/>
                </mxCell>
                <mxCell id="110" value="data_pedido" style="text;html=1;align=center;verticalAlign=middle;resizable=0;points=[];autosize=1;strokeColor=none;fillColor=none;" vertex="1" parent="1">
                    <mxGeometry x="685.67" y="485" width="90" height="30" as="geometry"/>
                </mxCell>
                <mxCell id="111" value="tipo_pedido" style="text;html=1;align=center;verticalAlign=middle;resizable=0;points=[];autosize=1;strokeColor=none;fillColor=none;" vertex="1" parent="1">
                    <mxGeometry x="685.67" y="505" width="90" height="30" as="geometry"/>
                </mxCell>
                <mxCell id="112" value="cliente_id" style="text;html=1;align=center;verticalAlign=middle;resizable=0;points=[];autosize=1;strokeColor=none;fillColor=none;" vertex="1" parent="1">
                    <mxGeometry x="690.67" y="525" width="70" height="30" as="geometry"/>
                </mxCell>
                <mxCell id="113" value="funcionario_id" style="text;html=1;align=center;verticalAlign=middle;resizable=0;points=[];autosize=1;strokeColor=none;fillColor=none;" vertex="1" parent="1">
                    <mxGeometry x="424" y="475" width="100" height="30" as="geometry"/>
                </mxCell>
                <mxCell id="115" value="" style="verticalLabelPosition=bottom;align=center;dashed=0;html=1;verticalAlign=top;shape=mxgraph.pid.fittings.blind_disc2;labelBackgroundColor=none;fontColor=#FFFFFF;rotation=0;" vertex="1" parent="1">
                    <mxGeometry x="397.34" y="705" width="10" height="30" as="geometry"/>
                </mxCell>
                <mxCell id="116" value="" style="verticalLabelPosition=bottom;align=center;dashed=0;html=1;verticalAlign=top;shape=mxgraph.pid.fittings.blind_disc2;labelBackgroundColor=none;fontColor=#FFFFFF;rotation=0;" vertex="1" parent="1">
                    <mxGeometry x="419" y="705" width="10" height="30" as="geometry"/>
                </mxCell>
                <mxCell id="117" value="" style="verticalLabelPosition=bottom;align=center;dashed=0;html=1;verticalAlign=top;shape=mxgraph.pid.fittings.open_disc;labelBackgroundColor=none;fontColor=#FFFFFF;" vertex="1" parent="1">
                    <mxGeometry x="442.34000000000003" y="705" width="8" height="30" as="geometry"/>
                </mxCell>
                <mxCell id="120" value="" style="verticalLabelPosition=bottom;align=center;dashed=0;html=1;verticalAlign=top;shape=mxgraph.pid.fittings.open_disc;labelBackgroundColor=none;fontColor=#FFFFFF;" vertex="1" parent="1">
                    <mxGeometry x="460" y="705" width="8" height="30" as="geometry"/>
                </mxCell>
                <mxCell id="121" value="item_pedido_id&lt;br&gt;" style="text;html=1;align=center;verticalAlign=middle;resizable=0;points=[];autosize=1;strokeColor=none;fillColor=none;rotation=-90;" vertex="1" parent="1">
                    <mxGeometry x="329" y="645" width="100" height="30" as="geometry"/>
                </mxCell>
                <mxCell id="122" value="pedido_id" style="text;html=1;align=center;verticalAlign=middle;resizable=0;points=[];autosize=1;strokeColor=none;fillColor=none;rotation=-90;" vertex="1" parent="1">
                    <mxGeometry x="362.34" y="655" width="80" height="30" as="geometry"/>
                </mxCell>
                <mxCell id="123" value="produto_id" style="text;html=1;align=center;verticalAlign=middle;resizable=0;points=[];autosize=1;strokeColor=none;fillColor=none;rotation=-90;" vertex="1" parent="1">
                    <mxGeometry x="384" y="655" width="80" height="30" as="geometry"/>
                </mxCell>
                <mxCell id="124" value="preco" style="text;html=1;align=center;verticalAlign=middle;resizable=0;points=[];autosize=1;strokeColor=none;fillColor=none;rotation=-90;" vertex="1" parent="1">
                    <mxGeometry x="419" y="665" width="50" height="30" as="geometry"/>
                </mxCell>
                <mxCell id="125" value="quantidade" style="text;html=1;align=center;verticalAlign=middle;resizable=0;points=[];autosize=1;strokeColor=none;fillColor=none;rotation=-90;" vertex="1" parent="1">
                    <mxGeometry x="424" y="655" width="80" height="30" as="geometry"/>
                </mxCell>
                <mxCell id="127" value="porcentagem_desconto" style="text;html=1;align=center;verticalAlign=middle;resizable=0;points=[];autosize=1;strokeColor=none;fillColor=none;rotation=0;" vertex="1" parent="1">
                    <mxGeometry x="504" y="785" width="150" height="30" as="geometry"/>
                </mxCell>
                <mxCell id="128" value="" style="verticalLabelPosition=bottom;align=center;dashed=0;html=1;verticalAlign=top;shape=mxgraph.pid.fittings.open_disc;labelBackgroundColor=none;fontColor=#FFFFFF;rotation=90;" vertex="1" parent="1">
                    <mxGeometry x="494.00000000000006" y="785" width="8" height="30" as="geometry"/>
                </mxCell>
            </root>
        </mxGraphModel>
    </diagram>
</mxfile>